# xmcd
#
# Track frame offsets:
#	150
#	16464
#	34638
#	50256
#	67231
#	78324
#	93964
#	107211
#	122383
#	135383
#	148348
#	168553
#
# Disc length: 2422 seconds
#
# Revision: 0
# Processed by: cddbd v1.5.1PL0 Copyright (c) Steve Scherf et al.
# Submitted via: audiograbber 1.83.01
#
DISCID=a009740c
DTITLE=Conjunto Horizonte Norteño - Por Esa Mujer
DYEAR=2003
DGENRE=Norteño
TTITLE0=Por Esa Mujer
TTITLE1=Morenita de Ojos Negros
TTITLE2=Hermanos Alvizu
TTITLE3=El Zacahuil
TTITLE4=El Flaco Sabroson
TTITLE5=No Me Importa Tu Pasado
TTITLE6=Tus Desprecios
TTITLE7=La Despreciada
TTITLE8=La Flechita
TTITLE9=El Tartanero
TTITLE10=José Ramón y María
TTITLE11=Vas a Extrañarme
EXTD=
EXTT0=
EXTT1=
EXTT2=
EXTT3=
EXTT4=
EXTT5=
EXTT6=
EXTT7=
EXTT8=
EXTT9=
EXTT10=
EXTT11=
PLAYORDER=
